<?xml version="1.0" encoding="UTF-8"?>
<svg version="1.1" viewBox="0 0 2048 2048" width="1280" height="1280" xmlns="http://www.w3.org/2000/svg">
<path transform="translate(1014,539)" d="m0 0h494l9 3 7 6 6 10 17 32 12 22 12 23 10 19 2 5v7l-5 8-6 3-36 10h-2l3 12 27 134 51 255 22 109 29 145 2 9v96h64l6 4 1 2v9l-6 8-16 15-14 14-11 7-8 3h-1320l-12-5-10-8-22-22-7-6-4-6v-9l5-5 2-1h153l-2-10-36-302-20-168v-2h-9l-10-4-6-5-5-9-1-3v-13l3-8 7-8 5-3 1-20 3-8 5-5 6-4 5-1h249l1-9 19-79 12-48 15-53 12-36 9-22 7-13 6-7 10-5 11-2 17 1 34 7 45 12 61 18 19 5 1 2-15 56-8-1-94-25-44-12-2 10-21 79-22 82-11 40h133l9 3 5 4 5 10 1 21 6 4 6 7 3 7 1 8-2 10-6 9-9 6-6 2h-9l-2 20-1 2 12-3h26l8 1 25-93 27-101 22-82 13-48 1-104 4-8 8-7z" fill="#4A2A20"/>
<path transform="translate(964,1065)" d="m0 0h50l33 2 34 4 33 6 32 8 30 10 26 11 26 13 21 13 18 13 11 9 10 9 8 7 11 11 7 8 14 17 14 20 14 24 13 26 11 28 8 25 7 28 6 25 5 13 7 13 9 10 10 6 4 1h12l10-2-3 5-10 8-19 10-3 1h-810l-12-7-9-8-7-10-4-10-1-5v-22l3-23 5-23 7-23 11-27 9-19 14-24 10-15 12-16 9-11 12-14 21-21 11-9 9-8 19-14 22-14 18-10 22-11 33-13 29-9 30-7 31-5 29-3z" fill="#F8BB57"/>
<path transform="translate(1013,669)" d="m0 0h492l-2 11-22 82-15 56-22 82-15 56-23 86-22 82-4 13-7-6-7-9-7-6-10-5-15-11-7-8-14-7-11-4-19-10-22-10-27-10-22-7v-2l90-1 9-4 7-8 3-8 41-153-1-10-3-5-8-4h-282l-9 4-5 4-4 7-26 97-8 30-1 2h-16l-9 3-9 7-11 12-5-2-11-7-6-2-9-1-10-7-3-2 4-17 6-21 6-24 5-17 6-24 5-17 6-24 5-17 7-27 9-34 7-25 6-23 7-27 5-17z" fill="#EFAF7A"/>
<path transform="translate(427,957)" d="m0 0h421l-1 14-3 23-11 7-10 9-9 10-9 15-6 1-6-4-6-2h-16l-12 6-4 4-13-1-9 2-9 6-8 11-11 2-9 6-6 9-12 3-8 6-6 7-7 13-27 1-13 4-10 7-6 9-3 11v31h-22l-9 2-9 5-7 7-5 10-2 9v11l4 15 1 5h-61l3 23 9 84v13l-2 2h-7l-3-4-12-111v-7h-17l-1-1-8-67-4-38-19-159z" fill="#D33333"/>
<path transform="translate(1518,718)" d="m0 0h1l50 249 22 109 27 134 25 125 4 19v93h-26l-21-14-44-29-43-29-16-10-7-5-5-32 1-8v-9l-2-12 7-118 19-332 7-122z" fill="#EFAF7A"/>
<path transform="translate(1369,1314)" d="m0 0 2 2 6 17 16 48 5 12 7 13 9 9 7 4 7 3 8 3h12l10-2-3 5-10 8-19 10-3 1h-810l-12-7-9-8-7-10-2-5 1-23 4-25 2-6 29 9 36 9 42 8 49 7 46 5 52 4 39 2 30 1h119l50-2 44-3 49-5 32-5 28-6 27-8 21-8 24-11 19-11 12-8 13-10 12-11 5-5z" fill="#D5993A"/>
<path transform="translate(332,1462)" d="m0 0h1384l-2 4-9 9-8 7-7 7-7 4-1044 1h-63l-211-1-9-6-13-13-8-7-3-3z" fill="#BEE2E7"/>
<path transform="translate(1070,861)" d="m0 0h278l2 5-8 30-7 26-7 25-10 38-9 33-3 7-6 4h-94l-7-11-5-7-8-7v-2l-4-2-16-10-13-5-17-3h-16l-17 3-15 6-10 6-1 1-14 2-16 8-7 5-4-2-9-11 2-11 8-30 5-17 10-39 5-18 5-17 4-5z" fill="#FEFEFE"/>
<path transform="translate(1017,560)" d="m0 0h488l3 3-1 93h-40l-1-52-2-4-6-1-4 3-1 53-1 1h-35l-1-53-2-3h-9l-1 4-1 52h-35l-1-1-1-53-5-3-5 2-1 1-1 53-1 1h-35l-1-1-1-55h-9l-2 3-1 53h-36l-1-53-2-3h-7l-2 2-1 53-1 1h-36l-1-54-5-3-5 2-1 2-1 53h-36l-1-52-1-3-2-1h-7l-2 4-1 52h-36l-1-53-2-3-4-1-5 3-1 54h-36l-1-1-1-53-5-3-5 2-1 2-1 53h-41v-94z" fill="#EFAF7A"/>
<path transform="translate(1491,669)" d="m0 0h14l-2 11-22 82-15 56-22 82-15 56-23 86-22 82-4 13-7-6-7-9-7-6-10-5-15-11-7-8-3-2 1-7 19-55 16-50 16-54 13-48 11-44 8-40 4-29v-17l-4-17-8-16-10-13-8-8-15-11-11-6v-1l30-2 84-2z" fill="#D18B51"/>
<path transform="translate(427,958)" d="m0 0h106l13 184v14l12-1 6-11 8-10 8-8 13-9 15-7 7-1-10 10-4 6-3 11v31h-22l-9 2-9 5-7 7-5 10-2 9v11l4 15 1 5h-61l3 23 9 84v13l-2 2h-7l-3-4-12-111v-7h-17l-1-1-8-67-4-38-19-159z" fill="#E55353"/>
<path transform="translate(415,890)" d="m0 0h444l3 3v24l-211 1-2 2 1 4 219 1 6 3 3 4 1 8-4 7-8 3h-461l-7-3-4-7 1-8 5-5 3-2 131-1-1-5-2-1-120-1v-24z" fill="#F0FAFD"/>
<path transform="translate(1502,733)" d="m0 0h1v17l-25 436-5 87-2 4-10-25-15-30-13-21-12-17-11-14-12-14-7-8 15-57 48-179 23-86 22-82z" fill="#D18B51"/>
<path transform="translate(964,1065)" d="m0 0h50l33 2 34 4 33 6 32 8 30 10 26 11 26 13 21 13 18 13 11 9 10 9 8 7 11 11 7 8 14 17 14 20 14 24 13 26 11 28 8 25 7 28 6 25 5 13 7 13 9 10 1 2-6-2-10-9-6-8-7-15-10-29-10-31-4-10-6-17-11-25-8-17-12-21-12-17-11-13-7-8-10-11-8-7-12-11-14-11-15-11-22-14-22-12-23-11-31-12-30-9-32-7-33-5-22-2-21-1h-29l-35 2-26 3-29 5-32 8-36 12-23 10-19 9-21 12-24 16-16 12-13 11-12 11-11 10-7 8-12 13-11 14-14 19-13 21-12 23-10 27-9 28-6 26-3 20-1 23-2-2-2-8v-22l3-23 5-23 7-23 11-27 9-19 14-24 10-15 12-16 9-11 12-14 21-21 11-9 9-8 19-14 22-14 18-10 22-11 33-13 29-9 30-7 31-5 29-3z" fill="#F5D5A3"/>
<path transform="translate(1013,669)" d="m0 0h478v1l-21 1-84 2-88 3-231 7h-31l-4 17-18 65-27 99-23 84-15 55h-10l-10-7-3-2 4-17 6-21 6-24 5-17 6-24 5-17 6-24 5-17 7-27 9-34 7-25 6-23 7-27 5-17z" fill="#F7D8BA"/>
<path transform="translate(461,1055)" d="m0 0 7 1 2 4 10 93 1 2h77l6-11 8-10 8-8 13-9 15-7 7-1-10 10-4 6-3 11v31h-22l-9 2-9 5-7 7-5 10-2 9v11l4 15 1 5h-61l3 23 9 84v13l-2 2h-7l-3-4-12-111v-7h-17l-1-1-8-67v-8h16v-9l-9-83 1-6z" fill="#F6D6A4"/>
<path transform="translate(427,957)" d="m0 0h421l-1 14-3 23-11 7-10 9-9 10-9 15-6 1-6-4-6-2h-16l-12 6-4 4-13-1-9 2-9 6-8 11-11 2-9 6-2 1v-14l6-85 1-10h-274z" fill="#B63131"/>
<path transform="translate(1518,718)" d="m0 0h1l49 244v5l-4-5-10-16-9-11-4-5-4-3h-4l-8 54-23 171-13 97h-1v-15l16-281 13-226z" fill="#D18B51"/>
<path transform="translate(459,1231)" d="m0 0h17l9 81 4 37 2 3h7l1-1v-13l-11-102v-5h62v3l-5 5-3 1-2 5-6 8-7 15-4 16v25l1 9h-2l-2 5-5 10-2 7v23l6 16 7 9 2 1v2l4 2 1 24 5 13 9 10 5 4 5 2v1h-72l-1-1-6-52-19-159z" fill="#E55252"/>
<path transform="translate(691,1095)" d="m0 0h7l13 4 8 6 6 8 3 10-1 5-16 12-16 13-12 11-8 7-10 10-7 8-12 14-12 16-3 3-9-2h-24l-16 4-10 4-5-8-3-9v-11l4-8 5-4 3-1 33-1 6-3 3-6v-14l-1-21 2-8 5-6 8-3 8-1 23-1 8-4 7-11 6-10z" fill="#40703B"/>
<path transform="translate(333,1463)" d="m0 0h278l10 10 7 8 8 8 2 4h-273l-9-6-13-13-8-7z" fill="#BEE2E7"/>
<path transform="translate(742,645)" d="m0 0 7 1 16 6 3 1-1 7-9 35-14 52-8 30-7 26-6 23-5 18-6 23-4 14-1 1h-29l2-11 26-103 18-66 13-43z" fill="#F0F9FC"/>
<path transform="translate(1e3 1013)" d="m0 0h9l8 7 10 14 4 2h8l8-4 12-9 9-4 9-1 9 2 8 6 5 6 7 11 4 3 3 1 26 1 5 5 3 12v8l-2 1-23-6-36-7-31-4-24-2-20-1h-46l-31 2-27 3 1-11 6-12 8-7 11-5 8-1 10 5 10 6 4 1h8l8-4 9-9 5-6z" fill="#40703B"/>
<path transform="translate(1431,569)" d="m0 0h77l-1 87h-40l-1-52-2-4-6-1-4 3-1 53-1 1h-35v-25l8-10 5-10 3-13v-15z" fill="#D18B51"/>
<path transform="translate(1017,560)" d="m0 0h488l3 3v6l-466 1-5 3-2 3-1 79-1 1h-18v-94z" fill="#F4D2B3"/>
<path transform="translate(461,1055)" d="m0 0 7 1 2 4 11 104 9 81 10 93v13l-2 2h-7l-3-4-12-111v-7h-17l-1-1-8-67v-8h16v-9l-9-83 1-6z" fill="#FEFCF9"/>
<path transform="translate(599,1231)" d="m0 0h22l3 1-2 5-10 16-14 27-11 26-9 28-4 17-1 2-5-2-12-12-8-14-4-11-1-5v-23l4-14 6-11 7-9 7-7 13-8 10-4z" fill="#941B1B"/>
<path transform="translate(1491,1377)" d="m0 0 5 2 15 10 44 29 42 28v1h-139l5-5 10-9 7-10 5-10 5-18z" fill="#D18B51"/>
<path transform="translate(880 1e3)" d="m0 0h10l12 2 13 5 2 2-14 11-8 10-6 13-3 15-5 2-30 7-26 8-6 2-1-1v-18l4-15 6-12 8-10 10-9 16-8 10-3z" fill="#941B1B"/>
<path transform="translate(714,925)" d="m0 0h155l6 3 3 4 1 8-4 7-8 3h-460v-1l296-1 10-2 7-3 6-1v-2l4-4-1-4-15-6z" fill="#C3C6C3"/>
<path transform="translate(783,618)" d="m0 0 8 1 24 6 17 5 27 7 34 9 25 7 5 1-1 9-5 19-8-1-127-34-2-1z" fill="#F0FAFD"/>
<path transform="translate(1178,1060)" d="m0 0h12l8 7 8 16 5 4 2 1h16l11-2h16l8 4 5 6 7 16 4 5 26 13 6 5 3 6v10l-4 8-4 4-4-2-10-9-14-12-18-13-15-10-25-14-21-10-28-11-12-4-1-5 1-4 12-7z" fill="#40703B"/>
<path transform="translate(710,890)" d="m0 0h149l3 3v24h-151v-1l15-3 9-5 2-6v-3l-6-2-11-4-10-2z" fill="#C1CED1"/>
<path transform="translate(1369,1249)" d="m0 0 10 1 12 4 13 7 12 11 9 14 5 13 2 12v10l-3 15-5 12-9 13-5 5h-2l-7-31-9-30-11-29-12-25z" fill="#941B1B"/>
<path transform="translate(1400,1233)" d="m0 0 11 1 9 3 7 6 2 4 1 14 3 9 9 10 12 11 8 10 4 10v9l-6 11-10 15-4 9-1 4v13l4 11v13l-5 10-7 7-6-2-9-9-8-16-2-7 12-11 9-13 5-11 4-14 1-9v-10l-3-17-5-13-8-13-10-11-13-9-4-2z" fill="#40703B"/>
<path transform="translate(758,650)" d="m0 0 10 3-1 7-9 35-14 52-8 30-7 26-6 23-5 18-6 23-4 14-1 1h-13l3-14 5-19 9-36 3-11 12-45 4-14 8-30 3-10 5-17 4-14 7-21z" fill="#C2CED1"/>
<path transform="translate(1341,1131)" d="m0 0 6 1 5 4 3 5v13l-4 8v7l6 2 11 2 6 4 4 5 2 4v8l-4 8-4 5 1 6 6 3 5 6 3 7 1 11-8-1-18-2-6-9-11-17-12-16-9-11 6-8 7-14 3-13z" fill="#6B3A2C"/>
<path transform="translate(778,1049)" d="m0 0 8 2 7 8 4 1v30l-24 11-22 12-3-4-6-11-9-9-10-6-9-3v-2l12-1 5-5 8-12 2-1h7l5 5 3 6 5 1 3-2 3-10 4-7z" fill="#6B3A2C"/>
<path transform="translate(1118 1e3)" d="m0 0h19l16 4 13 7 12 11 7 9 7 14v1l-16 1-13 5-5 2-5-12-7-6-10-2h-20l-6-9-6-8-9-8 4-3 10-4z" fill="#941B1B"/>
<path transform="translate(332,1462)" d="m0 0h1384l-1 2h-1077l14 14 7 8 6 7-26 1h-63v-1l61-1-9-10-7-7-7-8-3-3h-279z" fill="#C2D5D8"/>
<path transform="translate(548,1463)" d="m0 0h63l10 10 7 8 8 8 2 4h-63l-9-10-8-8-7-8z" fill="#FEFEFF"/>
<path transform="translate(611,1109)" d="m0 0 4 1-8 6-6 9-3 11v31h-22l-9 2-9 5-7 7-3 4-2-29 12-1 6-11 8-10 8-8 13-9 15-7z" fill="#F7BA56"/>
<path transform="translate(538,1333)" d="m0 0 3 3 7 11 13 13 10 7-2 20v20l4 16 2 6-9-1-7-4-4-5-3-9v-10l3-12 2-3v-7l-5-2h-7l-5-3-4-5-3-8v-17l3-8z" fill="#6B3A2C"/>
<path transform="translate(781,634)" d="m0 0 21 5 30 8 7 2 18 5 6 2 18 5 9 3 21 6 7 3-1 9-8-1-127-34-2-1z" fill="#C2CED0"/>
<path transform="translate(1521,589)" d="m0 0 3 3 12 23 12 22 10 19-1 3-33 9h-2l-1-4z" fill="#D18B51"/>
<path transform="translate(402,926)" d="m0 0h57l-4 5v8l6 5 8 4v1l-63 1-7-3-4-7 1-8 5-5z" fill="#FEFEFE"/>
<path transform="translate(467,1150)" d="m0 0h1l4 41 4 40h-17l-1-1-8-67v-8h16z" fill="#F6D5A3"/>
<path transform="translate(415,890)" d="m0 0h49v1l-5 1-5 8v6l5 6 9 4v1h-56v-24z" fill="#FEFEFE"/>
<path transform="translate(1369,1249)" d="m0 0 10 1 12 4 13 7 12 11 9 14 5 13 2 12v10l-3 15-5 12-9 13-3 2 8-20 2-9v-23l-3-12-5-12-7-10-8-9-13-9-16-7z" fill="#B63131"/>
<path transform="translate(637,1463)" d="m0 0h32l8 8 7 8 8 8 4 6h-31l-13-13-7-8-8-8z" fill="#FEFEFF"/>
<path transform="translate(1510,1390)" d="m0 0 4 1 44 29 36 24 1 2h-32l-9-10-7-8-12-13-22-22z" fill="#EEAE79"/>
<path transform="translate(880 1e3)" d="m0 0h10l12 2 6 2v1h-17l-16 3-12 5-10 6-10 9-8 10-7 14-4 17-1 7-4 1-1-1v-18l4-15 6-12 8-10 10-9 16-8 10-3z" fill="#B63131"/>
<path transform="translate(1390,1179)" d="m0 0 5 4 15 20 13 20v2l-10-2-17-2-5-9-4-4 4-12v-12z" fill="#D5993A"/>
<path transform="translate(599,1231)" d="m0 0h22l3 2-23 3-13 5-11 6-12 11-8 11-6 13-3 11-1 7v20l-2-3-2-8v-23l4-14 6-11 7-9 7-7 13-8 10-4z" fill="#B63131"/>
<path transform="translate(1466,1342)" d="m0 0 2 4 2 18v28l-3 10-9 7-2-1 4-10 1-10-2-10-3-9v-7l4-10z" fill="#D5993A"/>
<path transform="translate(694,1314)" d="m0 0h6l8 6 6 10 2 11-3 5h-6l-8-6-6-10-2-11z" fill="#D69A3A"/>
<path transform="translate(1118 1e3)" d="m0 0h19l16 4 13 7 12 11 7 9 7 14-4 1-3-1-6-11-11-12-9-7-14-7-16-4h-22l2-2z" fill="#B63131"/>
<path transform="translate(1184,1214)" d="m0 0 4 1 4 9v22l-3 9-2 2-4-1-3-4-2-9v-15l3-11z" fill="#D69A3A"/>
<path transform="translate(1069,1292)" d="m0 0 7 1 4 9v14l-3 8-3 3-6-1-4-8-1-4v-9l3-9z" fill="#D69A3A"/>
<path transform="translate(916,1013)" d="m0 0 5 1v4l-9 6-7 7-6 12-3 18-11 2 3-16 8-16 9-10z" fill="#6B3A2C"/>
<path transform="translate(1367,605)" d="m0 0h1v46l26-8 9-3v16h-35l-1-1z" fill="#D18B51"/>
<path transform="translate(801,1196)" d="m0 0 4 1 3 8v19l-3 8-4 1-3-6-1-6v-12l2-9z" fill="#D69A3A"/>
<path transform="translate(1262,1298)" d="m0 0 4 1 3 6v15l-3 6-4 1-3-3-2-9 1-11z" fill="#D69A3A"/>
<path transform="translate(454,991)" d="m0 0h5l4 5 1 16-3 3h-6l-3-3-1-5v-13z" fill="#FEF9F6"/>
<path transform="translate(880,1251)" d="m0 0 5 2 2 5v10l-3 6-4 2-4-4-1-2v-13l3-5z" fill="#D69A3A"/>
<path transform="translate(990,1338)" d="m0 0 7 1 4 5v6l-5 5h-7l-5-6 1-7z" fill="#D69A3A"/>
<path transform="translate(759,617)" d="m0 0h3l8 23-1 2-8-7v-2l-4-2-5-5 1-5z" fill="#ECF4F5"/>
<path transform="translate(766,616)" d="m0 0h12l1 5-2 18-2 4-7-19z" fill="#EDF4F4"/>
<path transform="translate(748,630)" d="m0 0 5 2 17 17-5-1-19-7-1-4z" fill="#EDF5F6"/>
<path transform="translate(1210,1065)" d="m0 0 12 3 16 6v1l-10 2h-12l-3-4z" fill="#D5993B"/>
<path transform="translate(851,1330)" d="m0 0h5l1 5-4 9-5 4-5-1v-7l6-9z" fill="#D69A3A"/>
<path transform="translate(698,1220)" d="m0 0 5 1 3 4-1 5-3 3-6-1-3-4 1-5z" fill="#D69A3A"/>
<path transform="translate(937,1133)" d="m0 0 4 1 1 2v12l-3 4-3-1-2-5v-7z" fill="#D69A3A"/>
<path transform="translate(1053,1180)" d="m0 0 4 2 1 3v8l-2 5-5-1-1-2v-11z" fill="#D69A3A"/>
<path transform="translate(1143,1135)" d="m0 0 6 1 2 3v5l-3 3h-6l-3-3 1-7z" fill="#D69A3A"/>
<path transform="translate(1151,1331)" d="m0 0h5l3 3-1 7-2 1h-6l-2-2v-6z" fill="#D69A3A"/>
<path transform="translate(929,1294)" d="m0 0 4 1 1 9-2 4-4-1-1-9z" fill="#D69A3A"/>
<path transform="translate(996,1213)" d="m0 0 3 1 1 2v9l-2 3-3-1-1-2v-8z" fill="#D69A3A"/>
<path transform="translate(542,917)" d="m0 0 7 1 1 5-2 2h-7l-2-5z" fill="#483123"/>
<path transform="translate(1367,1154)" d="m0 0 7 6 3 4-10-3-2-2z" fill="#D69A3A"/>
<path transform="translate(761,641)" d="m0 0 8 6 1 2-5-1-6-2z" fill="#C3CFD1"/>
<path transform="translate(772,633)" d="m0 0h5l-1 10-2-3z" fill="#C6CDC9"/>
<path transform="translate(766,631)" d="m0 0 2 3 2 8-6-5 1-4z" fill="#C6CDCC"/>
</svg>
